<?xml version="1.0" encoding="UTF-8"?>
<svg preserveAspectRatio="none" version="1.1" viewBox="0 0 100 100" xmlns="http://www.w3.org/2000/svg"> 
<path d="m24.77 99.48c-4.95-3.33 4.12-7.57 2.37-1.11-0.46 0.74-1.59 1.83-2.37 1.11zm37.36-4.92c-2.69-0.57-3.65-4.78-6.13-5.23-4.69-0.98-8.83 1.07-12.43 3.33-2.15-2.2-2.98-9.72-7.59-5.49-2.42 1.21-5.32 8.98-7.44 4.23 2.51-3.8 2.78-9.14-0.51-12.72-1.86-6.02-4.79-0.7-7.76-0.12-4.04-1.66 0.46-4.26 0.91-6.72-4.01-1.07-10.12-2.98-8.27-9.64-0.27-4.1-4.744-1.07-6.887-2.42-3.342-0.68-2.144-6.48 1.432-4.45 3.575 0.82 11.755-1.04 6.575-6.29-3.21-3.6-1.45-6.31-6.055-4.59-2.302 1.78-9.206 0.91-7.1387-3.28 4.0097-2.53 5.1887 0.14 6.8047 0.1 0.696 0.31 11.539 0.51 9.469-7.34-1.9-2.27-6.72-7.27-1.51-8.55 3.18 0 6.3 2.47 9.09 0.43 2.69-2.95 3.42-9.33-0.11-11.95-2.19-2-7.82-3.973-4.03-8.004 3.96 0.243 4.93 6.524 8.38 8.534 3.79 3.24 10.39 1.7 12.59-2.99 0.41-4.006-2.36-10.191 2.56-11.266 4.76 1.5057-0.33 10.806 5.88 10.846 5.22 1.87 8.09-3.31 12.25-5.198 6.17 2.186-6.01 8.748 1.82 9.528 4.73 1.3 7.95-4.14 9.81-8.38 0.68-1.944 1.11-6.5119 3.62-5.301 2.71 4.263 0.38 9.331-2.31 12.361-2.08 3.82 1.92 7 2.67 10.44 0.29 3.7 0.82 14.93 5.2 8.05 2.35-4.02 8.19 1.72 2.67 3.14-4.48 0.58-1.81 7.31 1.7 7.45 3.07 2.13 8.48-0.43 10.18 4.05-0.64 5.22-5.94 1.01-9.12 2.08-5.45 0-3.61 6.36-1.59 10.04 2.01 4.72 6.36 7.53 9.86 10.62 3.78 3.72-2.54 7.61-4.24 2.82-2.55-3.59-5.73-8.82-10.39-6.05-4.14 2.86-0.78 11-5.55 13.23-2.81 2.66 3.02 6.98 4.34 9.34 4.07 1.76 0.81 8.07-1.65 3.25-2.56-3.4-4.88-7.12-8.7-8.82-4.85-1.37-6.36 5.6-5.75 9.53-0.51 1.11-1.65 1.64-2.67 1.4zm-52.829-6.77c-2.853-4.42 4.549-7.42 7.439-7.87-1.67 3.12-3.42 9.1-7.439 7.87zm79.549-56.11c0.63-3.67 5.41-4.02 7.21-7.14 3.16-3.29 6.24 4.98 1.06 4.44-2.65 0.62-5.73 2.98-8.27 2.7z" stroke-width=".21954"/>
</svg>
