<?xml version="1.0" encoding="UTF-8"?>
<svg preserveAspectRatio="none" version="1.1" viewBox="0 0 100 100" xmlns="http://www.w3.org/2000/svg">
 <g>
  <path d="m49.55 0.0332c-13.09 0.0714-26.01 2.3188-33.39 6.5688a22.68 22.76 0 0 0-7.238 5.948v-0.1c-6.047 7.16-8.8941 22.72-8.8107 38.04 0.096 13.6 2.4607 27.02 6.9867 34.28a22.68 22.76 0 0 0 5.522 6.33s0.1 0.1 0.13 0.1a22.68 22.76 0 0 0 1.18 0.91c7.59 5.38 22.19 7.99 36.59 7.86 13.1-0.1 26.03-2.31 33.42-6.57a22.68 22.76 0 0 0 7.23-5.98v0.1c6-7.14 8.83-22.69 8.77-38.01-0.09-13.61-2.49-27.04-6.96-34.3a22.68 22.76 0 0 0-5.54-6.337c0-0.04-0.1-0.06-0.11-0.103a22.68 22.76 0 0 0-1.17-0.891c-7.6-5.375-22.19-7.9244-36.61-7.8458zm-0.01 0.9688c14.16-0.0773 28.48 2.423 35.94 7.693a22.26 22.32 0 0 1 1.15 0.873c0.01 0.041 0.11 0.062 0.11 0.102a22.26 22.32 0 0 1 5.44 6.21c4.39 7.12 6.74 20.29 6.83 33.64 0.06 15.02-2.72 30.27-8.61 37.27v-0.1a22.26 22.32 0 0 1-7.1 5.87c-7.25 4.17-19.94 6.34-32.8 6.44-14.14 0.13-28.47-2.43-35.92-7.71a22.26 22.32 0 0 1-1.16-0.89c-0.03 0-0.13-0.1-0.13-0.1a22.26 22.32 0 0 1-5.421-6.21c-4.47-7.11-6.769-20.27-6.869-33.61-0.1-15.02 2.7-30.28 8.66-37.3v0.1a22.26 22.32 0 0 1 7.1-5.837c7.25-4.167 19.93-6.371 32.78-6.441z" fill-opacity=".7"/>
  <path d="m49.55 2.002c-12.58 0.07-25 2.228-32.11 6.309a21.8 21.86 0 0 0-6.92 5.709v-0.1c-5.873 6.88-8.614 21.84-8.516 36.54 0.1 13.08 2.351 25.96 6.76 32.93a21.8 21.86 0 0 0 5.266 6.09s0.1 0.1 0.13 0.1a21.8 21.86 0 0 0 1.14 0.87c7.31 5.16 21.34 7.68 35.2 7.55 12.58-0.1 25.01-2.23 32.12-6.3a21.8 21.86 0 0 0 6.96-5.75v0.1c5.77-6.86 8.49-21.81 8.43-36.53-0.1-13.07-2.38-25.96-6.69-32.94a21.8 21.86 0 0 0-5.32-6.09s-0.1-0.1-0.11-0.1a21.8 21.86 0 0 0-1.13-0.853c-7.32-5.162-21.34-7.611-35.21-7.535zm0.02 1c13.58-0.074 27.31 2.325 34.48 7.378a21.35 21.4 0 0 1 1.1 0.83c0.01 0 0.11 0.1 0.11 0.1a21.35 21.4 0 0 1 5.21 5.97c4.22 6.83 6.45 19.45 6.55 32.25 0.06 14.41-2.6 29.05-8.25 35.77v-0.1a21.35 21.4 0 0 1-6.82 5.63c-6.96 3.99-19.13 6.07-31.45 6.17-13.57 0.13-27.31-2.34-34.47-7.39a21.35 21.4 0 0 1-1.11-0.85c-0.03 0-0.13-0.1-0.13-0.1a21.35 21.4 0 0 1-5.161-5.97c-4.315-6.82-6.517-19.43-6.617-32.24-0.096-14.39 2.589-29.04 8.338-35.78v0.1a21.35 21.4 0 0 1 6.78-5.59c6.96-3.996 19.12-6.109 31.44-6.178z" fill-opacity=".85" stroke-width=".96113"/>
  <path d="m49.6 4.002c-12.06 0.068-23.94 2.136-30.76 6.038a20.89 20.94 0 0 0-6.63 5.47v-0.1c-5.635 6.59-8.306 20.94-8.207 35.03 0.1 12.53 2.275 24.88 6.427 31.54a20.89 20.94 0 0 0 5.14 5.85l0.1 0.1a20.89 20.94 0 0 0 1.09 0.83c7.02 4.95 20.48 7.36 33.73 7.23 12.07-0.1 23.94-2.14 30.77-6.03a20.89 20.94 0 0 0 6.73-5.51v0.1c5.44-6.56 8.11-20.9 8.01-34.99-0.1-12.54-2.28-24.88-6.43-31.57a20.89 20.94 0 0 0-5.05-5.85l-0.1-0.1a20.89 20.94 0 0 0-1.08-0.82c-7.03-4.944-20.48-7.29-33.74-7.218z" stroke-width=".92109"/>
 </g>
</svg>
