<?xml version="1.0" encoding="UTF-8"?>
<!-- Created with Inkscape (http://www.inkscape.org/) -->
<svg preserveAspectRatio="none" version="1.1" viewBox="0 0 100 100" xmlns="http://www.w3.org/2000/svg">
 <path d="m48.85 98.59c-1.04 0.11-2.04 0.32-3.07 0.34-4.21 0.19-8.42 0-12.63 0-4.6 0-9.29 0.3-13.87-0.15-1.65-0.19-5.19 0-6.66-0.75-0.44-0.21-3.211 0.11-3.97 0-0.215 0-0.334-0.29-0.54-0.34-0.214-0.1-1.095 0.16-1.262 0-0.172-0.18 0.114-0.85 0-1.08-0.196-0.4-0.611 0-0.9-0.19-0.193-0.11-0.389-0.21-0.542-0.37-0.04 0 0.04-0.13 0-0.16-0.183-0.18-0.349 0.19-0.54-0.18-0.167-0.35-0.32-0.93-0.54-1.27-0.03-0.1-0.122 0-0.18 0-0.06-0.11-0.156-0.22-0.18-0.35-0.06-0.32 0.09-0.63 0-0.92-0.07-0.22-0.442-0.32-0.542-0.53-0.217-0.43 0.217-1.19 0-1.62h-0.18c-0.4-0.21-0.06-0.1-0.18-0.37-0.138-0.26-0.625-0.42-0.721-0.71-0.127-0.4 0.09-0.64 0.18-0.9 0.324-0.98-0.323-2.65 0-3.6 0.234-0.72 0.181 0 0.181-0.74 0-1.72-0.115-3.49 0-5.21 0.111-1.7 0.352-3.36 0.54-5.06 0.08-0.69 0.04-1.29 0.18-1.98 0.225-1.11 0-3.36 0-4.5 0-1.4 0.198-2.96 0-4.34-0.03-0.13-0.148-0.21-0.18-0.34-0.101-0.4 0.151-0.45 0-0.9-0.03-0.1-0.153 0.1-0.18 0-0.05-0.11 0.03-0.24 0-0.37-0.212-0.85-0.747-2.76-1.081-3.42-0.195-0.39 0-4.28 0-4.87 0-0.1-0.07-1.03 0-1.08 0.149-0.11 0.369 0 0.54 0 0.06 0 0-0.13 0-0.19-0.05-0.47-0.136-0.95-0.18-1.43-0.08-0.84-0.07-1.69-0.18-2.54-0.191-1.45-0.54-2.85-0.721-4.31-0.225-1.8-0.18-3.6-0.18-5.42 0-0.88-0.217-2.01 0-2.89 0.128-0.5 0.452-0.39 0.54-0.53 0.149-0.21 0.241-0.47 0.361-0.71 0.05-0.11-0.07-0.26 0-0.37 0.341-0.5 0.928-1.01 1.081-1.61 0.225-0.9-0.288-3.26 0-3.97 0.101-0.24 0.286-0.45 0.36-0.72 0.111-0.4-0.04-4.38-0.18-4.51-0.373-0.37 0.03 0.57-0.36-0.18-0.08-0.16 0.04-0.37 0-0.54-0.1-0.39-0.443-0.51-0.541-0.9-0.226-0.91 0-2.13 0-3.07 0-2.15-0.09-4.34 0-6.48 0.173-3.962 0.08-0.73 0.361-3.248 0.08-0.764-0.127-1.585 0-2.344 0.135-0.82 0.558-1.527 0.72-2.342 0.05-0.275-0.183-1.259 0-1.442 0.145-0.145 0.712 0.1 0.902 0 0.265-0.132 0.646-0.371 0.9-0.541 0.114-0.08 0.06-0.3 0.182-0.36 0.241-0.121 0.643 0.09 0.9 0 0.942-0.315 2.053-0.181 3.064-0.181 0.868 0 3.358-0.203 3.968 0 0.1 0.03 0.1 0.154 0.18 0.181 0.54 0.18 0.18-0.09 0.54 0 0.52 0.13 0.53 0.176 0.9 0.36 0.24 0.119 0.65-0.08 0.9 0 0.28 0.09 0.58 0.279 0.9 0.361 0.59 0.146 5.68 0.114 6.49 0 1.74-0.249 3.35-0.69 5.04-1.082 0.79-0.181 1.77-0.291 2.54-0.541 0.1-0.03 0.1-0.153 0.16-0.1798 0.58-0.1889 2.94 0 3.62 0 0.69 0 2.86-0.2204 3.42 0 0.61 0.2418 1.03 0.3468 1.61 0.5408 0.37 0.12 1.06 0 1.46 0 0.5 0-0.29-0.03 0.53 0.18 0.58 0.141 1.24-0.141 1.8 0 0.13 0.03 0.23 0.148 0.37 0.18 0.39 0.1 1.03-0.02 1.43 0.181 0.1 0.03 0 0.137 0 0.18 0 0.01 2.35 0 2.54 0 0.71 0 3.17 0.203 3.78 0 0.74 0.326 0.21-0.285 0.34-0.361 0.24-0.106 0.48 0.04 0.93-0.18 0.37-0.189 1.38 0 1.8 0 0.18 0 1.3 0.134 1.43 0 0.1-0.04 0-0.138 0-0.18 0.16-0.162 2.41 0.1 2.88 0 0.1-0.02 0.11-0.153 0.19-0.18 0.37-0.124 5.82-0.06 6.14 0 0.66 0.136 1.29 0.374 1.95 0.54 0.93 0.23 3.44 0 4.53 0h9.74c0.42 0 0.37-0.07 0.71-0.18 0.32-0.108 0.74 0.108 1.08 0 0.1-0.03 0.11-0.142 0.16-0.18 0.19-0.08 0.37 0.04 0.56 0 0.18-0.04 0.34-0.143 0.53-0.18 0.1-0.02 0.82 0.09 0.9 0 0.1-0.07 0-0.2946 0-0.3608 0.13-0.1151 1.11 0 1.27 0h5.24c0.66 0 1.51-0.1601 2.14 0 0.34-0.1087 0.34 0.2918 0.56 0.3608 0.21 0.08 0.47-0.08 0.71 0 0.37 0.119 0.72 0.36 1.09 0.54 0.29 0.144 0.47-0.174 0.71 0.181 0.11 0.158 0.1 0.406 0.19 0.54 0 0.04 0.13-0.04 0.18 0 0.11 0.109 0 0.877 0 1.081 0 0.505 0.21 1.738 0 2.164 0 0.05-0.13-0.04-0.18 0-0.1 0.06 0 3.178 0 3.604 0 0.858-0.22 3.508 0 4.148 0.42 1.3-0.1-0.29 0.37 0.54 0.1 0.13 0.1 2.46 0 2.7-0.1 0.18-0.1 0.41-0.19 0.54 0 0-0.16-0.1-0.18 0-0.35 0.67 0.34 3.3 0 3.97 0 0.1-0.14-0.1-0.19 0-0.13 0.13-0.13 0.35-0.19 0.54-0.1 0.46 0 1.15 0 1.62v4.7s0.11 1.16 0 1.24c0 0.1-0.15-0.1-0.15 0s0.1 0.11 0.15 0.19c0.51 0.71 1.04 1.4 1.46 2.17 0.42 1.24-0.13-0.11 0.53 0.9 0 0 0.18 2.16 0.18 2.32s0.11 0.82 0 0.9c-0.1 0.14-0.42 0.14-0.52 0.37-0.1 0.11 0.1 0.29 0 0.37-0.1 0-0.16-0.1-0.19 0v0.35c0 0.1-0.16 0.1-0.19 0.18-0.47 1.49-0.18 6.17-0.18 7.94 0 0.35 0.16 2.22 0 2.52-0.11 0.21-0.24 0.34-0.34 0.55-0.1 0.13 0.1 0.4 0 0.53-0.3 0.56-0.16-0.32-0.37 0.56-0.1 0.18 0 0.74-0.19 0.9-0.11 0.1-0.26 0.1-0.34 0.34-0.1 0.21-0.1 3.17 0 3.25 0 0.1 0.13-0.1 0.15 0 0.11 0.1 0.14 1.12 0.19 1.25 0 0.1 0.16 0.1 0.19 0.18 0.1 0.19-0.1 0.56 0 0.74 0.1 0.22 0.29 0.48 0.37 0.72 0.1 0.16-0.1 0.37 0 0.53 0.26 0.55 0.13-0.32 0.34 0.55 0.21 0.82 0 2.01 0 2.89 0 0.47 0.21 1.56 0 1.98-0.1 0.13-0.29 0.19-0.34 0.35-0.1 0.15-0.19 1.79-0.19 1.79-0.21 0.22-0.18-0.18-0.18 0.56 0 0.5 0.21 1.72 0 2.14-0.19 0.4-0.43 0.74-0.53 1.09-0.19 0.5 0.15 1.14 0 1.64-0.45 1.27-1.43-1.06-1.64-1.27v0.71c0 0.45-0.1 1.01 0 1.46s0.26 0.92 0.37 1.43c0 0.18-0.11 0.79 0 0.9 0.37 0.37 0-0.56 0.34 0.18 0.13 0.27 0.45 1.14 0.56 1.46 0 0.16-0.1 0.37 0 0.53 0 0.1 0.1 0.13 0.18 0.18 0 0.11 0.13 0.21 0.19 0.35 0.18 0.79-0.3 4.23 0 4.52h0.15c0.22 0.21-0.13 0.98 0 1.24 0.11 0.19 0.32 0.37 0.38 0.56 0.1 0.21-0.1 0.5 0 0.71 0.34 1.04 0.18 2.31 0.18 3.42v5.24c0 0.53 0.1 4.6 0 4.68-0.11 0.11-0.82 0.45-0.9 0.56-0.1 0.1 0.1 0.26 0 0.34-0.1 0.1-0.13 0-0.18 0-0.16 0.1-0.22 0.29-0.37 0.37-0.32 0.16-0.77 0-1.09 0.19-0.74 0.37 0.21 0-0.16 0.34-0.18 0.18-1.03-0.1-1.27 0-0.4 0 0 0.32-0.18 0.37-0.61 0.29-2.28-0.32-2.89 0-0.74 0.37 0.19 0-0.18 0.34-0.11 0.14-0.56-0.1-0.72 0-0.24 0.14-0.47 0.29-0.71 0.37-0.74 0.24-1.59-0.1-2.36 0.19-0.68 0.24-1.64-0.24-2.33 0-0.13 0.1-0.23 0.13-0.37 0.18-0.26 0.1-0.66-0.13-0.9 0-0.18 0.1-0.34 0.3-0.52 0.33-0.61 0.2-2.89 0-3.63 0-0.48 0-1.69 0.3-2.14 0-0.53-0.22-0.98-0.46-1.46-0.7-0.34-0.15-2.25 0-2.7 0-0.79 0-4.13 0.19-4.68 0-0.42-0.13-1.38-0.23-1.61-0.37-0.1 0 0-0.13 0-0.15-0.24-0.14-0.67 0.1-0.9 0-0.14-0.1-0.1-0.32-0.19-0.38-0.11-0.1-0.48 0.1-0.56 0-0.1-0.13 0-0.26-0.34-0.18-0.69 0.18-1.3 0.4-1.98 0.56-0.77 0.13-1.75 0-2.54 0h-5.93c-0.53 0-1.3-0.14-1.83 0-0.1 0-0.1 0.13-0.16 0.15-0.15 0.1-0.39-0.1-0.55 0-0.85 0.45-1.69 0.14-2.51-0.34z"/>
</svg>
