<?xml version="1.0" encoding="UTF-8"?>
<svg preserveAspectRatio="none" version="1.1" viewBox="0 0 100 100" xmlns="http://www.w3.org/2000/svg">
 <path d="m 24.54,98.51 c -0.58,0 -1.23,0.18 -1.82,0.11 -0.38,-0.11 -0.79,-0.23 -1.18,-0.31 -1.33,-0.28 -2.64,-0.5 -3.96,-0.79 -0.56,-0.13 -1.16,-0.32 -1.75,-0.4 -0.6,-0.1 -1.14,-0.13 -1.72,-0.24 -0.54,-0.1 -1.41,0.22 -1.9,0 -0.15,0 -0.31,-0.28 -0.4,-0.38 C 10.72,95.37 10.33,93.42 9.114,92.58 8.388,92.06 7.766,91.83 7.144,91.09 6.775,90.66 6.599,90.08 6.192,89.68 5.845,89.34 5.412,89.07 5.08,88.75 4.55,88.22 3.964,87.21 3.814,86.48 c -0.09,-0.45 0,-1.05 0.08,-1.49 0.163,-0.93 -0.04,-1.95 0.08,-2.89 0.09,-0.74 -0.02,-1.54 -0.08,-2.27 -0.05,-0.56 0.02,-1.11 0.08,-1.64 C 4.053,77.51 3.86,76.54 3.814,75.84 3.709,74.23 3.127,72.67 2.943,71.08 2.83,70.1 2.75,69.07 2.548,68.1 2.434,67.56 2.167,67.01 2.073,66.47 1.932,65.66 1.839,64.72 1.839,63.88 1.839,63.44 1.665,63.01 1.607,62.57 1.497,61.73 1.35,60.27 1.525,59.42 1.722,58.48 1.96,57.52 2.073,56.53 2.242,55.06 1.729,53.24 2.002,51.76 2.206,50.66 2.635,49.33 2.397,48.18 2.254,47.5 2.075,46.77 2.002,46.06 1.961,45.68 1.981,45.35 1.92,44.97 1.83,44.42 1.83,43.19 1.92,42.63 2,42.16 2.155,41.29 2,40.83 1.526,39.43 1.111,37.94 0.8886,36.46 0.7273,35.37 1.19,34.19 1.05,33.1 0.9948,32.67 0.9132,32.63 0.8069,32.16 0.4955,30.79 0.2504,29.27 0.4128,27.86 0.52,26.92 0.9315,26.05 1.05,25.13 1.142,24.41 0.8376,23.25 0.6548,22.54 0.5496,22.14 0.3208,21.73 0.4128,21.3 0.5169,20.81 0.8202,20.38 1.05,19.96 1.178,19.72 1.071,19.27 1.202,19.02 1.276,18.89 1.437,18.75 1.525,18.63 1.913,18.07 2.139,17.33 2.235,16.68 2.339,15.99 2.099,14.78 1.92,14.1 1.775,13.55 2.078,12.38 2.315,11.91 2.522,11.5 2.244,10.54 2.073,10.19 c -0.105,-0.194 0,-0.801 0,-1.017 0,-0.237 0.06,-0.135 0.162,-0.309 C 2.345,8.658 2.276,8.022 2.318,7.771 2.365,7.431 2.291,7.629 2.235,7.302 2.099,6.514 2.216,5.075 2.468,4.331 2.75,3.497 3.523,2.834 3.662,1.907 3.686,1.741 3.643,0.6649 3.814,0.5804 c 0.387,-0.1903 1.011,0.137 1.426,0 1.666,-0.5465 3.516,-0.072 5.22,0.1504 0.32,0.041 0.64,-0.041 0.95,0 0.96,0.1368 1.9,0.3372 2.85,0.5492 0.73,0.165 1.48,0.233 2.22,0.389 0.53,0.111 1.05,0.331 1.58,0.398 0.54,0.07 1.05,0.122 1.58,0.229 0.24,0.04 0.49,-0.05 0.72,0 0.19,0.05 0.35,0.189 0.55,0.239 0.4,0.103 2.11,0.164 2.53,0.07 0.78,-0.176 1.49,-0.336 2.29,-0.469 1.22,-0.206 2.71,0.07 4.03,-0.152 1.32,-0.218 2.73,0.148 4.04,0 0.4,-0.04 0.79,-0.114 1.19,-0.157 0.47,-0.05 0.97,0.07 1.43,0 0.42,-0.07 0.84,-0.183 1.27,-0.232 0.81,-0.09 1.69,0 2.53,0 1.6,0 3.19,-0.04 4.75,0.152 0.74,0.09 2.06,0.573 2.84,0.318 0.96,-0.316 2.98,-1.2467 4.03,-0.938 0.21,0.06 0.46,0.244 0.71,0.31 0.53,0.131 2.97,0.248 3.41,0.158 0.58,-0.117 1.23,0.04 1.81,-0.08 0.64,-0.125 1.19,-0.36 1.82,-0.469 1.3,-0.2154 3.19,-0.3245 4.51,-0.1588 0.46,0.051 0.89,0.2578 1.34,0.3098 1.37,0.154 2.69,0.56 4.05,0.786 0.64,0.107 1.4,0 2.05,0 0.74,0 1.47,0.08 2.23,0.08 0.31,0 0.62,-0.161 0.94,-0.08 0.59,0.15 1.22,-0.03 1.82,0.08 0.31,0.05 0.57,0.155 0.86,0.229 0.74,0.184 1.64,-0.03 2.38,0.08 0.4,0.06 0.89,0.136 1.27,0.231 0.11,0.03 0.19,0.135 0.3,0.159 0.39,0.07 2.95,-0.02 3.18,-0.08 0.73,-0.178 1.4,-0.398 2.13,-0.547 0.44,-0.09 0.91,0.02 1.35,-0.07 0.57,-0.117 1.23,-0.243 1.75,-0.47 0.12,-0.06 0.33,0.05 0.47,0 0.53,-0.181 2.46,-0.589 3,-0.317 0.44,0.212 0.72,0.655 1.1,0.938 0.45,0.329 0.9,0.667 1.35,1.016 0.67,0.519 1.13,1.321 1.66,1.955 0.26,0.304 0.63,0.703 0.95,0.937 0.11,0.04 0.28,0.123 0.32,0.159 0.17,0.17 -0.1,1.158 -0.1,1.328 -0.4,2.589 -0.94,5.129 -0.94,7.739 0,0.88 0.13,2.45 0.39,3.28 0.68,2.26 2.25,5.25 1.9,7.66 -0.12,0.77 -0.31,1.48 -0.55,2.19 -0.13,0.36 -0.47,0.63 -0.56,1.02 -0.24,1.18 -0.43,2.35 -0.64,3.51 -0.14,0.83 0,1.69 -0.15,2.51 0,0.28 -0.26,0.51 -0.33,0.77 -0.26,1.06 -0.54,2.1 -0.54,3.22 0,2.21 -0.1,4.41 -0.1,6.64 0,0.76 -0.1,1.58 0,2.35 0.1,0.87 0.42,1.82 0.62,2.65 0,0.17 0.21,0.31 0.26,0.47 0.1,0.44 0.1,0.89 0.15,1.34 0.1,0.75 0.36,1.49 0.47,2.26 0,0.34 -0.1,0.73 0,1.09 0,0.38 0.36,1.49 0.15,1.87 -0.2,0.42 -0.29,1.14 -0.22,1.65 0.18,1.22 0.84,2.61 0.54,3.9 0,0.16 -0.41,1.66 -0.47,1.72 -0.17,0.2 -0.4,0.61 -0.47,0.95 -0.1,0.36 0.1,0.78 0,1.16 -0.21,1.21 -0.15,3 -0.15,4.23 0,0.49 0.11,1.16 0,1.64 -0.11,0.29 -0.11,0.63 -0.18,0.94 -0.1,0.31 -0.24,0.61 -0.3,0.93 -0.11,0.41 0,0.85 -0.17,1.25 -0.1,0.24 0,0.6 0.11,0.78 0.13,0.24 0,1.8 0,2.04 -0.12,0.78 -0.17,1.71 -0.11,2.5 0,0.39 0.44,1.23 0.25,1.63 -0.28,0.55 -0.44,2.14 -0.17,2.67 0.11,0.13 0,0.4 0,0.55 0.22,0.84 0.63,1.66 1.04,2.41 0.2,0.39 -0.16,1.77 -0.12,2.19 0.12,0.56 0.4,1.18 0.66,1.64 0.12,0.24 -0.11,0.68 -0.18,0.87 -0.1,0.15 0,0.41 -0.1,0.55 -0.14,0.29 -0.41,0.53 -0.55,0.85 -0.1,0.15 -0.67,0.64 -0.8,0.86 -0.11,0.24 -0.11,0.67 -0.3,0.86 -0.77,0.75 -1.82,1.35 -3.01,1.65 -0.29,0.1 -0.57,0.26 -0.86,0.3 -0.71,0.1 -1.45,0 -2.15,0.1 -0.52,0.11 -1,0.3 -1.51,0.39 -0.32,0.1 -0.68,0 -1.02,0 -1.69,0.28 -2.95,0.81 -4.75,0.47 -0.51,-0.1 -1.05,-0.1 -1.5,-0.31 -0.24,-0.12 -1.49,0 -1.82,0 -1.58,0 -3.75,0.22 -5.22,-0.1 -0.41,-0.1 -5.26,-0.1 -5.61,0.1 -0.11,0 -4.25,0.1 -4.53,0.1 -0.82,0 -1.85,-0.14 -2.68,0 -0.41,0.11 -1.93,0.21 -2.29,0.15 -0.73,-0.13 -1.47,-0.21 -2.22,-0.31 -0.29,0 -0.58,-0.23 -0.87,-0.3 -0.33,-0.11 -0.73,0 -1.04,-0.17 0,0 -1.7,-0.1 -2.05,-0.16 -0.45,-0.11 -2.33,0.1 -2.78,0.16 -0.63,0.17 -1.39,0 -2.04,0.12 -0.57,0.12 -1.32,0 -1.9,0 -1,0 -2.81,-0.17 -3.72,0.1 -0.21,0.1 -0.4,0.18 -0.63,0.22 -0.29,0.1 -0.58,0 -0.88,0.1 -0.51,0.14 -1.7,-0.2 -2.12,0 -0.91,0.44 -3.67,0.1 -4.75,0.1 h -4.35 c -0.92,0 -1.89,-0.1 -2.78,0.11 -0.98,0.16 -2.05,-0.17 -3,0.1 -0.72,0.23 0.32,-0.76 -0.39,-0.76"/>
</svg>
