<?xml version="1.0" encoding="UTF-8" standalone="no"?>
<svg
   viewBox="0 0 100 100"
   preserveAspectRatio="none"
   xmlns="http://www.w3.org/2000/svg">
  <g>
    <path
       d="M 49.55 0.0332 C 36.46 0.1046 23.54 2.352 16.16 6.602 A 22.68 22.76 0 0 0 8.922 12.55 L 8.922 12.45 C 2.875 19.61 0.02793 35.17 0.1113 50.49 C 0.2073 64.09 2.572 77.51 7.098 84.77 A 22.68 22.76 0 0 0 12.62 91.1 C 12.62 91.1 12.72 91.2 12.75 91.2 A 22.68 22.76 0 0 0 13.93 92.11 C 21.52 97.49 36.12 100.1 50.52 99.97 C 63.62 99.87 76.55 97.66 83.94 93.4 A 22.68 22.76 0 0 0 91.17 87.42 L 91.17 87.52 C 97.17 80.38 100 64.83 99.94 49.51 C 99.85 35.9 97.45 22.47 92.98 15.21 A 22.68 22.76 0 0 0 87.44 8.873 C 87.44 8.833 87.34 8.814 87.33 8.77 A 22.68 22.76 0 0 0 86.16 7.879 C 78.56 2.504 63.97 -0.0454 49.55 0.0332 z " />
  </g>
</svg>
