<?xml version="1.0" encoding="UTF-8"?>
<svg preserveAspectRatio="none" version="1.1" viewBox="0 0 100 100" xmlns="http://www.w3.org/2000/svg">
 <path d="M 58.98,98.85 C 54.41,98.31 49.85,96.56 45.22,97.84 38.24,98.4 31.31,99.47 24.34,100 19.65,99.74 14.87,99.71 10.27,98.73 4.597,97.23 3.048,90.74 2.689,85.36 2.132,79.98 1.797,74.58 2.073,69.16 1.916,57.93 1.354,46.72 0.4509,35.53 0.1655,27.63 0.4,19.6 1.955,11.86 2.764,6.799 6.944,2.597 11.97,2.948 17.72,2.986 23.49,3.506 29.24,2.637 35.99,2.022 42.74,1.607 49.48,1.346 59.77,0.3864 70.1,0.4839 80.4,0.1467 c 5.07,0.6957 11.21,-0.13 14.86,4.4723 2.7,4.542 1.64,10.241 2.5,15.301 0.11,7.6 0.73,15.19 0.95,22.78 0.67,7.99 0.58,16.04 1.11,24.03 0,9.5 -0.49,19.11 -2.5,28.36 -3.06,5.11 -9.4,3.53 -14.15,3.16 -6.03,0.49 -12,2.25 -18.09,1.46 -1.31,-0.12 -2.58,0.2 -3.89,0.13"/>
</svg>
