<?xml version="1.0" encoding="UTF-8"?>
<svg preserveAspectRatio="none" version="1.1" viewBox="0 0 100 100" xmlns="http://www.w3.org/2000/svg">
 <path d="m7.25 6.706h86.41v86.454h-86.41zm3.25-3h80.65c2.88 0 5.19 2.313 5.19 5.187v81.927c0 2.87-2.31 5.18-5.19 5.18h-80.65c-2.879 0-5.197-2.31-5.197-5.18v-81.927c0-2.874 2.318-5.187 5.197-5.187zm-2.899 1.941-1.237 88.583 88.216-0.35-1.24-88.41zm0.479 94.003s-2.351 0-3.722-1.54c-8.893-9.77 0.075-26.83-0.775-40.21-0.457-7.19-2.229-14.29-2.323-21.51-0.095-5.6 1.397-11.12 1.492-16.72 0.094-5.21-3.5714-11.248-0.831-15.63 1.632-2.61 8.419-3.3561 8.419-3.3561l-0.878 1.2791m82.818-1.5755s3.04-0.2063 3.93 0.8925c8.49 10.52-0.1 27.23 0.8 40.8 0.47 7.28 2.31 14.45 2.4 21.74 0.1 5.66-1.44 11.24-1.54 16.9-0.1 5.27 3.63 11.31 0.86 15.81-1.12 1.87-5.97 2.63-5.97 2.63m6.97-7.13s0 2.99-0.91 4.04c-7.07 7.83-26.83-0.1-40.2 0.81-7.16 0.47-14.23 2.35-21.41 2.42-5.58 0.1-11.08-1.44-16.65-1.54-5.2-0.1-11.142 3.74-15.564 0.9-1.85-1.17-2.592-6.11-2.592-6.11m0.053-84.532s-0.179-3.136 0.909-4.026c10.424-8.524 26.684 0.077 39.994-0.814 7.13-0.477 14.16-2.3512 21.31-2.4238 5.54-0.0563 11.01 1.4468 16.55 1.5428 5.18 0.09 11.09-3.682 15.49-0.902 1.84 1.166 2.59 6.114 2.59 6.114"/>
</svg>
