<?xml version="1.0" encoding="UTF-8"?>
<svg preserveAspectRatio="none" version="1.1" viewBox="0 0 100 100" xmlns="http://www.w3.org/2000/svg">
 <path d="M 23.43,5.571 C 29.52,0.703 37.82,1.68 45.07,0.5521 52.69,-0.0283 60.49,0.9186 67.74,3.266 80,7.595 88.48,18.46 93.63,29.97 c 5.47,9.94 6.97,21.68 6.26,32.88 -1.2,9.82 -6.25,19.17 -13.7,25.67 -4.05,3.22 -9,4.65 -13.59,6.84 -6.64,2.16 -13.32,4.74 -20.43,4.48 C 45.71,100.4 39.22,99.7 33.11,97.48 28.46,96.6 24.38,94.35 20.24,92.2 14.09,88.48 8.388,83.56 4.623,77.34 0.2765,69.1 0.0261,59.54 0.9908,50.47 1.626,41.64 5.073,33.38 7.549,24.96 9.992,18.83 13.5,13.02 17.78,8.001 20.09,5.572 23.4,3.712 26.85,4.482"/>
</svg>
