<?xml version="1.0" encoding="UTF-8"?>
<svg preserveAspectRatio="none" version="1.1" viewBox="0 0 100 100" xmlns="http://www.w3.org/2000/svg">
 <path d="m93.89 88.8c-7.62 11.9-25.08 16.5-42.38 2.79-13.54-10.7-21.16 3.74-31.84 4.34-2.89 0.17-6.14-0.17-8.49-1.82-4.152-2.87-3.699-6.7-3.699-6.7l87.019-0.1c0 0.61-0.26 0.97-0.61 1.48zm-5.11-83.077c11.82 7.587 16.62 25.067 2.82 42.307-10.78 13.52 3.68 21.11 4.3 31.77 0.17 2.89-0.11 6.13-1.83 8.49-2.87 4.17-6.71 3.73-6.71 3.73l-0.1-86.87c0.68 0 0.97 0.251 1.49 0.573zm-76.2 6.587h74.99v75.19h-74.99zm-1.37 81.8c-11.852-7.64-16.564-25.05-2.81-42.29 10.76-13.52-3.698-21.11-4.309-31.78-0.165-2.88 0.14-6.12 1.797-8.46 2.905-4.147 6.752-3.696 6.752-3.696l0.1 86.826c-0.68 0-0.98-0.26-1.47-0.6zm-5.25-82.95c7.63-11.777 25.17-16.502 42.48-2.807 13.57 10.717 21.19-3.686 31.91-4.295 2.9-0.164 6.15 0.138 8.5 1.791 4.17 2.895 3.7 6.731 3.7 6.731l-87.168 0.1c0.02-0.68 0.256-0.98 0.578-1.48z" stroke-width=".73435"/>
 <path d="m93.93 11.2c-7.7-11.903-25.1-16.503-42.4-2.803-13.6 10.703-21.17-3.7-31.85-4.3-2.89-0.2-6.14 0.1-8.49 1.8-4.165 2.9-3.705 6.703-3.705 6.703l87.045 0.1c0-0.6-0.3-1-0.6-1.5zm-5.1 83.08c11.77-7.59 16.57-25.07 2.8-42.31-10.8-13.52 3.7-21.11 4.3-31.77 0.1-2.9-0.1-6.1-1.9-8.5-2.8-4.203-6.7-3.703-6.7-3.703l-0.1 86.853c0.7 0 1-0.25 1.5-0.57zm-76.24-6.59h74.94v-75.19h-74.94zm-1.37-81.793c-11.865 7.603-16.575 25.043-2.815 42.283 10.765 13.52-3.7 21.11-4.31 31.78-0.17 2.88 0.14 6.12 1.79 8.46 2.91 4.15 6.765 3.7 6.765 3.7l0.1-86.823c-0.68 0-0.98 0.3-1.47 0.6zm-5.255 82.943c7.635 11.76 25.175 16.46 42.465 2.81 13.6-10.72 21.2 3.68 31.9 4.29 2.9 0.17 6.2-0.13 8.5-1.79 4.2-2.89 3.7-6.73 3.7-6.73l-87.145-0.1c0 0.68 0.25 0.98 0.58 1.48z" fill-opacity=".8324" stroke-width=".73435"/>
</svg>
